# xmcd
#
# Track frame offsets: 
#        150
#        13985
#        30331
#        43750
#        60284
#        77345
#        93991
#        106514
#        121025
#
# Disc length: 1778 seconds
#
# Revision: 0
# Processed by: cddbd v1.5.1PL0 Copyright (c) Steve Scherf et al.
# Submitted via: ExactAudioCopy v0.95b1
#
DISCID=5606f009
DTITLE=Brushwood - Outsiders
DYEAR=2005
DGENRE=Country
TTITLE0=Margaritas And Senoritas
TTITLE1=If I Only Had Your Love
TTITLE2=Eloise
TTITLE3=I Miss You
TTITLE4=I'll Be There
TTITLE5=Without You
TTITLE6=In Your Heart
TTITLE7=The Way I Am
TTITLE8=All I Want
EXTD=
EXTT0=
EXTT1=
EXTT2=
EXTT3=
EXTT4=
EXTT5=
EXTT6=
EXTT7=
EXTT8=
PLAYORDER=
